<svg xmlns="http://www.w3.org/2000/svg" version="1.1" xmlns:xlink="http://www.w3.org/1999/xlink" xmlns:svgjs="http://svgjs.dev/svgjs" width="2000" height="1247" viewBox="0 0 2000 1247"><g transform="matrix(1,0,0,1,-1.2121212121212466,0.504858299595071)"><svg viewBox="0 0 396 247" data-background-color="#ffffff" preserveAspectRatio="xMidYMid meet" height="1247" width="2000" xmlns="http://www.w3.org/2000/svg" xmlns:xlink="http://www.w3.org/1999/xlink"><g id="tight-bounds" transform="matrix(1,0,0,1,0.2400000000000091,-0.09999999999999432)"><svg viewBox="0 0 395.52 247.2" height="247.2" width="395.52"><g><svg></svg></g><g><svg viewBox="0 0 395.52 247.2" height="247.2" width="395.52"><g transform="matrix(1,0,0,1,39.55199999999999,101.31853870722433)"><svg viewBox="0 0 316.416 44.56292258555133" height="44.56292258555133" width="316.416"><g><svg viewBox="0 0 316.416 44.56292258555133" height="44.56292258555133" width="316.416"><g><svg viewBox="0 0 316.416 44.56292258555133" height="44.56292258555133" width="316.416"><g><svg viewBox="0 0 316.416 44.56292258555133" height="44.56292258555133" width="316.416"><g><svg viewBox="0 0 316.416 44.56292258555133" height="44.56292258555133" width="316.416"><g><svg viewBox="0 0 316.416 44.56292258555133" height="44.56292258555133" width="316.416"><g transform="matrix(1,0,0,1,0,0)"><svg width="316.416" viewBox="4.449999809265137 -36.25 332.1199951171875 46.29999923706055" height="44.56292258555133" data-palette-color="#000000"><g class="undefined-text-0" data-fill-palette-color="primary" id="text-0"><path d="M27.95 0L4.45 0 4.45-36.25 9.95-36.25 9.95-5.2 27.95-5.2 27.95 0ZM30.1-10.25L30.1-10.25Q30.1-12.55 30.97-14.58 31.85-16.6 33.35-18.13 34.85-19.65 36.82-20.55 38.8-21.45 41.05-21.45L41.05-21.45Q42.55-21.45 43.8-21.08 45.05-20.7 45.95-20.15 46.85-19.6 47.4-19 47.95-18.4 48.15-17.95L48.15-17.95 48.35-20.9 52.45-20.9 52.45 0 48.15 0 48.15-2.65Q47.9-2.25 47.35-1.7 46.8-1.15 45.92-0.68 45.05-0.2 43.85 0.15 42.65 0.5 41.1 0.5L41.1 0.5Q38.7 0.5 36.67-0.38 34.65-1.25 33.2-2.73 31.75-4.2 30.92-6.15 30.1-8.1 30.1-10.25ZM34.4-10.5L34.4-10.5Q34.4-9.05 34.92-7.8 35.45-6.55 36.35-5.65 37.25-4.75 38.5-4.23 39.75-3.7 41.25-3.7L41.25-3.7Q42.75-3.7 44.02-4.23 45.3-4.75 46.22-5.68 47.15-6.6 47.65-7.83 48.15-9.05 48.15-10.5L48.15-10.5Q48.15-11.95 47.65-13.18 47.15-14.4 46.22-15.3 45.3-16.2 44.02-16.73 42.75-17.25 41.25-17.25L41.25-17.25Q39.75-17.25 38.5-16.73 37.25-16.2 36.35-15.3 35.45-14.4 34.92-13.18 34.4-11.95 34.4-10.5ZM76.15-10.5L76.15-10.5Q76.15-11.95 75.7-13.18 75.25-14.4 74.4-15.3 73.55-16.2 72.35-16.73 71.15-17.25 69.65-17.25L69.65-17.25Q68.15-17.25 66.87-16.73 65.6-16.2 64.7-15.3 63.8-14.4 63.27-13.18 62.75-11.95 62.75-10.5L62.75-10.5Q62.75-9.05 63.27-7.8 63.8-6.55 64.7-5.65 65.6-4.75 66.87-4.23 68.15-3.7 69.65-3.7L69.65-3.7Q71.15-3.7 72.35-4.23 73.55-4.75 74.4-5.68 75.25-6.6 75.7-7.83 76.15-9.05 76.15-10.5ZM80.8-10.4L80.8-10.4Q80.8-8.05 80-6.05 79.2-4.05 77.75-2.6 76.3-1.15 74.27-0.33 72.25 0.5 69.85 0.5L69.85 0.5Q68.6 0.5 67.47 0.23 66.35-0.05 65.4-0.53 64.45-1 63.75-1.58 63.05-2.15 62.7-2.75L62.7-2.75Q62.7-2.5 62.72-2.23 62.75-1.95 62.75-1.7L62.75-1.7 62.75 10.05 58.45 10.05 58.45-20.9 62.6-20.9Q62.6-20.3 62.67-19.43 62.75-18.55 62.75-17.85L62.75-17.85Q63.15-18.45 63.82-19.07 64.5-19.7 65.42-20.23 66.35-20.75 67.5-21.1 68.65-21.45 70.05-21.45L70.05-21.45Q72.45-21.45 74.42-20.68 76.4-19.9 77.82-18.48 79.25-17.05 80.02-15 80.8-12.95 80.8-10.4ZM87.24-20.85L87.24-30.1 91.49-30.1 91.49-20.85 97.09-20.85 97.09-17.05 91.49-17.05 91.49 0 87.24 0 87.24-17.05 83.49-17.05 83.49-20.85 87.24-20.85ZM99.19-10.5L99.19-10.5Q99.19-12.75 100.07-14.75 100.94-16.75 102.44-18.23 103.94-19.7 105.97-20.58 107.99-21.45 110.34-21.45L110.34-21.45Q112.69-21.45 114.72-20.58 116.74-19.7 118.22-18.23 119.69-16.75 120.52-14.75 121.34-12.75 121.34-10.5L121.34-10.5Q121.34-8.25 120.52-6.25 119.69-4.25 118.22-2.75 116.74-1.25 114.72-0.38 112.69 0.5 110.29 0.5L110.29 0.5Q107.99 0.5 105.97-0.3 103.94-1.1 102.44-2.55 100.94-4 100.07-6.03 99.19-8.05 99.19-10.5ZM103.44-10.45L103.44-10.45Q103.44-9.05 103.97-7.83 104.49-6.6 105.42-5.68 106.34-4.75 107.57-4.23 108.79-3.7 110.19-3.7L110.19-3.7Q111.59-3.7 112.84-4.23 114.09-4.75 115.02-5.68 115.94-6.6 116.49-7.83 117.04-9.05 117.04-10.45L117.04-10.45Q117.04-11.85 116.49-13.1 115.94-14.35 115.02-15.28 114.09-16.2 112.84-16.73 111.59-17.25 110.19-17.25L110.19-17.25Q108.79-17.25 107.57-16.73 106.34-16.2 105.42-15.28 104.49-14.35 103.97-13.1 103.44-11.85 103.44-10.45ZM143.59-10.5L143.59-10.5Q143.59-11.95 143.14-13.18 142.69-14.4 141.84-15.3 140.99-16.2 139.79-16.73 138.59-17.25 137.09-17.25L137.09-17.25Q135.59-17.25 134.31-16.73 133.04-16.2 132.14-15.3 131.24-14.4 130.71-13.18 130.19-11.95 130.19-10.5L130.19-10.5Q130.19-9.05 130.71-7.8 131.24-6.55 132.14-5.65 133.04-4.75 134.31-4.23 135.59-3.7 137.09-3.7L137.09-3.7Q138.59-3.7 139.79-4.23 140.99-4.75 141.84-5.68 142.69-6.6 143.14-7.83 143.59-9.05 143.59-10.5ZM148.24-10.4L148.24-10.4Q148.24-8.05 147.44-6.05 146.64-4.05 145.19-2.6 143.74-1.15 141.71-0.33 139.69 0.5 137.29 0.5L137.29 0.5Q136.04 0.5 134.91 0.23 133.79-0.05 132.84-0.53 131.89-1 131.19-1.58 130.49-2.15 130.14-2.75L130.14-2.75Q130.14-2.5 130.16-2.23 130.19-1.95 130.19-1.7L130.19-1.7 130.19 10.05 125.89 10.05 125.89-20.9 130.04-20.9Q130.04-20.3 130.11-19.43 130.19-18.55 130.19-17.85L130.19-17.85Q130.59-18.45 131.26-19.07 131.94-19.7 132.86-20.23 133.79-20.75 134.94-21.1 136.09-21.45 137.49-21.45L137.49-21.45Q139.89-21.45 141.86-20.68 143.84-19.9 145.26-18.48 146.69-17.05 147.46-15 148.24-12.95 148.24-10.4Z" fill="#000000" data-fill-palette-color="primary"></path><path d="M158.19-31.15L158.19-18.1 163.14-18.1Q165.14-18.1 166.49-18.8 167.84-19.5 168.62-20.5 169.39-21.5 169.72-22.65 170.04-23.8 170.04-24.7L170.04-24.7Q170.04-25.65 169.72-26.78 169.39-27.9 168.59-28.88 167.79-29.85 166.47-30.5 165.14-31.15 163.19-31.15L163.19-31.15 158.19-31.15ZM158.19 0L152.69 0 152.69-36.25 162.59-36.25Q165.44-36.25 167.82-35.5 170.19-34.75 171.92-33.27 173.64-31.8 174.59-29.68 175.54-27.55 175.54-24.8L175.54-24.8Q175.54-22.65 174.89-20.53 174.24-18.4 172.79-16.73 171.34-15.05 168.99-14 166.64-12.95 163.29-12.95L163.29-12.95 158.19-12.95 158.19 0ZM178.64-10.25L178.64-10.25Q178.64-12.55 179.51-14.58 180.39-16.6 181.89-18.13 183.39-19.65 185.36-20.55 187.34-21.45 189.59-21.45L189.59-21.45Q191.09-21.45 192.34-21.08 193.59-20.7 194.49-20.15 195.39-19.6 195.94-19 196.49-18.4 196.69-17.95L196.69-17.95 196.89-20.9 200.99-20.9 200.99 0 196.69 0 196.69-2.65Q196.44-2.25 195.89-1.7 195.34-1.15 194.46-0.68 193.59-0.2 192.39 0.15 191.19 0.5 189.64 0.5L189.64 0.5Q187.24 0.5 185.21-0.38 183.19-1.25 181.74-2.73 180.29-4.2 179.46-6.15 178.64-8.1 178.64-10.25ZM182.94-10.5L182.94-10.5Q182.94-9.05 183.46-7.8 183.99-6.55 184.89-5.65 185.79-4.75 187.04-4.23 188.29-3.7 189.79-3.7L189.79-3.7Q191.29-3.7 192.56-4.23 193.84-4.75 194.76-5.68 195.69-6.6 196.19-7.83 196.69-9.05 196.69-10.5L196.69-10.5Q196.69-11.95 196.19-13.18 195.69-14.4 194.76-15.3 193.84-16.2 192.56-16.73 191.29-17.25 189.79-17.25L189.79-17.25Q188.29-17.25 187.04-16.73 185.79-16.2 184.89-15.3 183.99-14.4 183.46-13.18 182.94-11.95 182.94-10.5ZM219.44-21.45L218.49-15.95Q217.08-15.95 215.79-15.58 214.49-15.2 213.46-14.45 212.44-13.7 211.84-12.58 211.24-11.45 211.24-10L211.24-10 211.24 0 206.99 0 206.99-20.9 210.74-20.9Q210.84-19.35 210.91-18.07 210.99-16.8 211.09-15.55L211.09-15.55Q211.74-16.9 212.79-18 213.83-19.1 215.04-19.85 216.24-20.6 217.39-21.03 218.54-21.45 219.44-21.45L219.44-21.45ZM224.33-20.85L224.33-30.1 228.58-30.1 228.58-20.85 234.18-20.85 234.18-17.05 228.58-17.05 228.58 0 224.33 0 224.33-17.05 220.58-17.05 220.58-20.85 224.33-20.85ZM237.18-28.9L237.18-28.9Q237.18-30.1 238.06-30.9 238.93-31.7 239.93-31.7L239.93-31.7Q240.93-31.7 241.78-30.9 242.63-30.1 242.63-28.9L242.63-28.9Q242.63-27.7 241.78-26.93 240.93-26.15 239.93-26.15L239.93-26.15Q238.93-26.15 238.06-26.93 237.18-27.7 237.18-28.9ZM241.98-20.9L241.98 0 237.73 0 237.73-20.9 241.98-20.9ZM249.78-20.85L249.78-30.1 254.03-30.1 254.03-20.85 259.63-20.85 259.63-17.05 254.03-17.05 254.03 0 249.78 0 249.78-17.05 246.03-17.05 246.03-20.85 249.78-20.85ZM262.63-28.9L262.63-28.9Q262.63-30.1 263.5-30.9 264.38-31.7 265.38-31.7L265.38-31.7Q266.38-31.7 267.23-30.9 268.08-30.1 268.08-28.9L268.08-28.9Q268.08-27.7 267.23-26.93 266.38-26.15 265.38-26.15L265.38-26.15Q264.38-26.15 263.5-26.93 262.63-27.7 262.63-28.9ZM267.43-20.9L267.43 0 263.18 0 263.18-20.9 267.43-20.9ZM271.97-10.5L271.97-10.5Q271.97-12.75 272.85-14.75 273.72-16.75 275.22-18.23 276.72-19.7 278.75-20.58 280.77-21.45 283.12-21.45L283.12-21.45Q285.47-21.45 287.5-20.58 289.52-19.7 291-18.23 292.47-16.75 293.3-14.75 294.12-12.75 294.12-10.5L294.12-10.5Q294.12-8.25 293.3-6.25 292.47-4.25 291-2.75 289.52-1.25 287.5-0.38 285.47 0.5 283.07 0.5L283.07 0.5Q280.77 0.5 278.75-0.3 276.72-1.1 275.22-2.55 273.72-4 272.85-6.03 271.97-8.05 271.97-10.5ZM276.22-10.45L276.22-10.45Q276.22-9.05 276.75-7.83 277.27-6.6 278.2-5.68 279.12-4.75 280.35-4.23 281.57-3.7 282.97-3.7L282.97-3.7Q284.37-3.7 285.62-4.23 286.87-4.75 287.8-5.68 288.72-6.6 289.27-7.83 289.82-9.05 289.82-10.45L289.82-10.45Q289.82-11.85 289.27-13.1 288.72-14.35 287.8-15.28 286.87-16.2 285.62-16.73 284.37-17.25 282.97-17.25L282.97-17.25Q281.57-17.25 280.35-16.73 279.12-16.2 278.2-15.28 277.27-14.35 276.75-13.1 276.22-11.85 276.22-10.45ZM298.67 0L298.67-20.9 302.42-20.9Q302.52-19.35 302.6-18.07 302.67-16.8 302.77-15.55L302.77-15.55Q303.92-18.25 306.05-19.85 308.17-21.45 311.27-21.45L311.27-21.45Q314.42-21.45 316.32-19.7 318.22-17.95 318.32-15.2L318.32-15.2 318.32 0 314.02 0 314.02-13.25Q313.92-14.85 312.92-15.98 311.92-17.1 309.77-17.2L309.77-17.2Q308.27-17.2 307.02-16.68 305.77-16.15 304.87-15.25 303.97-14.35 303.45-13.1 302.92-11.85 302.92-10.35L302.92-10.35 302.92 0 298.67 0ZM335.77-19.05L335.77-19.05 333.52-16.05Q333.47-16.1 333.17-16.3 332.87-16.5 332.39-16.7 331.92-16.9 331.29-17.07 330.67-17.25 330.02-17.25L330.02-17.25Q329.17-17.25 328.34-16.85 327.52-16.45 327.52-15.35L327.52-15.35Q327.52-14.4 328.19-13.8 328.87-13.2 329.87-12.73 330.87-12.25 332.04-11.75 333.22-11.25 334.22-10.53 335.22-9.8 335.89-8.72 336.57-7.65 336.57-6L336.57-6Q336.57-3.2 334.64-1.38 332.72 0.45 329.37 0.45L329.37 0.45Q327.42 0.45 325.54-0.23 323.67-0.9 322.52-2.2L322.52-2.2Q322.87-2.55 323.29-3.1 323.72-3.65 324.14-4.15 324.57-4.65 324.84-4.98 325.12-5.3 325.17-5.3L325.17-5.3Q325.17-5.25 325.54-5 325.92-4.75 326.52-4.48 327.12-4.2 327.87-3.98 328.62-3.75 329.37-3.75L329.37-3.75Q330.57-3.75 331.42-4.35 332.27-4.95 332.27-5.95L332.27-5.95Q332.27-6.85 331.59-7.38 330.92-7.9 329.92-8.35 328.92-8.8 327.72-9.28 326.52-9.75 325.52-10.5 324.52-11.25 323.84-12.38 323.17-13.5 323.17-15.3L323.17-15.3Q323.17-17 323.79-18.15 324.42-19.3 325.39-20.03 326.37-20.75 327.57-21.08 328.77-21.4 329.87-21.4L329.87-21.4Q331.32-21.4 332.97-20.8 334.62-20.2 335.77-19.05Z" fill="#ea9937" data-fill-palette-color="secondary"></path></g></svg></g></svg></g></svg></g></svg></g><g></g></svg></g></svg></g></svg></g><g mask="url(#f581cd4b-2b63-4fad-b792-0ed7abc408ff)"><g transform="matrix(0.8723059847969071, 0, 0, 0.8723059847969071, 96.98214457258143, 1.0000000000000142)"><svg xmlns="http://www.w3.org/2000/svg" xmlns:xlink="http://www.w3.org/1999/xlink" version="1.1" x="0" y="0" viewBox="28.465999603271484 0.7173328399658203 231.060791015625 281.0940246582031" enable-background="new 0 0 283.46 283.46" xml:space="preserve" height="281.0940246582031" width="231.060791015625" class="icon-none" data-fill-palette-color="accent" id="none"><g fill="#ea9937" data-fill-palette-color="accent"><path d="M140.938 214.844c-1.19-0.597-1.9-1.488-2.049-2.425-1.466 1.112-1.723 2.588 0.547 3.77v0.003c0.034 0.019 0.068 0.036 0.104 0.054 2.756 1.385 6.665 1.814 9.442 0.066 0.066-0.04 0.131-0.082 0.193-0.123 2.041-1.34 2.223-2.42 1.014-3.47-0.193 0.676-0.697 1.327-1.542 1.858C146.587 215.875 143.188 215.974 140.938 214.844z" fill="#ea9937" data-fill-palette-color="accent"></path><path d="M163.845 200.691c-1.189-0.598-1.899-1.488-2.051-2.425-1.487 1.129-1.729 2.632 0.653 3.825 0.729 0.367 1.542 0.666 2.392 0.875v0.002c1.705 0.422 3.565 0.482 5.238-0.002v-0.002c0.639-0.188 1.25-0.451 1.812-0.808 2.222-1.396 2.449-2.51 1.207-3.594-0.194 0.677-0.699 1.329-1.542 1.858C169.492 201.72 166.094 201.82 163.845 200.691z" fill="#ea9937" data-fill-palette-color="accent"></path><path d="M94.197 202.974c-1.907 0.777-4.458 0.783-6.368 0h-0.004c-0.147-0.061-0.291-0.126-0.431-0.196-1.19-0.597-1.9-1.487-2.05-2.422-1.018 0.771-1.452 1.717-0.862 2.618v0.003c0.272 0.417 0.762 0.825 1.515 1.203 2.758 1.386 6.665 1.813 9.444 0.065 0.718-0.453 1.228-0.873 1.546-1.272v-0.002c0.669-0.839 0.502-1.586-0.341-2.317-0.194 0.676-0.697 1.327-1.542 1.858C94.825 202.688 94.521 202.841 94.197 202.974z" fill="#ea9937" data-fill-palette-color="accent"></path><path d="M64.487 216.931c-0.42-0.211-0.781-0.458-1.077-0.736h-0.005c-0.541-0.499-0.871-1.085-0.967-1.688-0.67 0.509-1.087 1.093-1.127 1.688v0.003c-0.046 0.73 0.471 1.48 1.778 2.136 2.758 1.385 6.666 1.813 9.444 0.066 1.291-0.812 1.909-1.525 1.956-2.201l0 0c0-0.002 0-0.002 0-0.004 0 0 0 0 0-0.001 0.031-0.479-0.231-0.937-0.749-1.388-0.139 0.484-0.438 0.956-0.907 1.384H72.83c-0.185 0.166-0.394 0.324-0.632 0.476C70.136 217.964 66.737 218.059 64.487 216.931z" fill="#ea9937" data-fill-palette-color="accent"></path><path d="M99.389 228.042c3.188-2.008-3.16-4.319-6.413-2.272C89.785 227.776 96.135 230.089 99.389 228.042z" fill="#ea9937" data-fill-palette-color="accent"></path><path d="M110.842 220.964c3.188-2.006-3.16-4.317-6.413-2.271C101.238 220.701 107.588 223.014 110.842 220.964z" fill="#ea9937" data-fill-palette-color="accent"></path><path d="M136.325 220.271c3.189-2.007-3.159-4.318-6.413-2.271C126.722 220.005 133.071 222.317 136.325 220.271z" fill="#ea9937" data-fill-palette-color="accent"></path><path d="M129.484 221.919c-1.189-0.598-1.899-1.487-2.048-2.424-1.488 1.129-1.73 2.631 0.651 3.825 2.758 1.386 6.666 1.815 9.443 0.066 2.221-1.397 2.452-2.509 1.207-3.593-0.194 0.678-0.698 1.328-1.542 1.858C135.134 222.953 131.734 223.05 129.484 221.919z" fill="#ea9937" data-fill-palette-color="accent"></path><path d="M78.518 223.312c-1.19-0.598-1.899-1.489-2.049-2.424-1.488 1.128-1.729 2.631 0.652 3.824 2.757 1.386 6.666 1.812 9.442 0.065 2.223-1.397 2.451-2.509 1.208-3.592-0.195 0.676-0.699 1.327-1.542 1.856C84.167 224.344 80.768 224.44 78.518 223.312z" fill="#ea9937" data-fill-palette-color="accent"></path><path d="M106.578 236.073c-1.19-0.597-1.899-1.487-2.049-2.423-1.488 1.127-1.729 2.631 0.651 3.824 2.759 1.386 6.666 1.814 9.444 0.066 2.221-1.396 2.451-2.512 1.207-3.595-0.194 0.679-0.699 1.328-1.543 1.859C112.228 237.104 108.827 237.203 106.578 236.073z" fill="#ea9937" data-fill-palette-color="accent"></path><path d="M118.031 228.998c-1.189-0.598-1.899-1.488-2.048-2.426-1.488 1.131-1.729 2.631 0.65 3.827 2.759 1.386 6.666 1.815 9.444 0.065 2.221-1.396 2.451-2.512 1.207-3.594-0.194 0.676-0.699 1.326-1.543 1.857C123.681 230.028 120.281 230.126 118.031 228.998z" fill="#ea9937" data-fill-palette-color="accent"></path><path d="M113.419 234.423c3.189-2.006-3.16-4.32-6.414-2.271C103.815 234.158 110.165 236.47 113.419 234.423z" fill="#ea9937" data-fill-palette-color="accent"></path><path d="M92.549 229.693c-1.19-0.597-1.9-1.488-2.05-2.425-1.488 1.129-1.729 2.631 0.652 3.826 2.758 1.385 6.665 1.813 9.443 0.065 2.221-1.396 2.45-2.511 1.206-3.594-0.194 0.676-0.698 1.327-1.542 1.859C98.197 230.724 94.798 230.823 92.549 229.693z" fill="#ea9937" data-fill-palette-color="accent"></path><path d="M124.872 227.347c3.189-2.008-3.159-4.32-6.414-2.271C115.269 227.082 121.618 229.395 124.872 227.347z" fill="#ea9937" data-fill-palette-color="accent"></path><path d="M104.002 222.615c-1.19-0.597-1.9-1.488-2.05-2.423-1.488 1.128-1.729 2.631 0.651 3.825 2.758 1.385 6.666 1.814 9.444 0.066 2.221-1.398 2.451-2.511 1.207-3.594-0.194 0.678-0.699 1.327-1.543 1.858C109.649 223.647 106.251 223.746 104.002 222.615z" fill="#ea9937" data-fill-palette-color="accent"></path><path d="M85.358 221.662c3.189-2.009-3.159-4.32-6.414-2.271C75.754 221.396 82.104 223.708 85.358 221.662z" fill="#ea9937" data-fill-palette-color="accent"></path><path d="M82.781 208.203c3.189-2.007-3.159-4.317-6.413-2.271C73.178 207.938 79.527 210.251 82.781 208.203z" fill="#ea9937" data-fill-palette-color="accent"></path><path d="M159.231 206.117c3.188-2.008-3.16-4.32-6.413-2.271C149.628 205.852 155.979 208.164 159.231 206.117z" fill="#ea9937" data-fill-palette-color="accent"></path><path d="M152.392 207.768c-1.189-0.597-1.898-1.489-2.049-2.424-1.488 1.128-1.729 2.631 0.65 3.827 2.758 1.382 6.666 1.812 9.443 0.063 2.223-1.397 2.45-2.51 1.207-3.593-0.193 0.677-0.698 1.327-1.543 1.857C158.041 208.798 154.642 208.895 152.392 207.768z" fill="#ea9937" data-fill-palette-color="accent"></path><path d="M101.424 209.158c-1.19-0.597-1.899-1.488-2.048-2.423-1.489 1.128-1.729 2.63 0.65 3.826 2.759 1.384 6.666 1.813 9.444 0.065 2.221-1.398 2.451-2.51 1.206-3.595-0.193 0.677-0.697 1.327-1.542 1.858C107.073 210.189 103.675 210.287 101.424 209.158z" fill="#ea9937" data-fill-palette-color="accent"></path><path d="M96.812 214.585c3.189-2.008-3.159-4.319-6.413-2.271C87.207 214.32 93.558 216.634 96.812 214.585z" fill="#ea9937" data-fill-palette-color="accent"></path><path d="M133.748 206.812c3.189-2.008-3.159-4.32-6.413-2.271C124.145 206.546 130.494 208.861 133.748 206.812z" fill="#ea9937" data-fill-palette-color="accent"></path><path d="M122.295 213.891c3.189-2.009-3.159-4.321-6.414-2.274C112.691 213.625 119.041 215.938 122.295 213.891z" fill="#ea9937" data-fill-palette-color="accent"></path><path d="M126.907 208.462c-1.189-0.598-1.899-1.488-2.049-2.424-1.487 1.129-1.729 2.633 0.652 3.826 2.758 1.385 6.665 1.814 9.443 0.066 2.222-1.398 2.451-2.51 1.207-3.594-0.194 0.677-0.698 1.328-1.542 1.856C132.557 209.496 129.158 209.591 126.907 208.462z" fill="#ea9937" data-fill-palette-color="accent"></path><path d="M120.69 216.186h-0.024c-1.021 0.177-2.112 0.183-3.135 0.005h-0.018c-0.738-0.126-1.442-0.342-2.059-0.65-1.19-0.598-1.9-1.487-2.05-2.424-1.189 0.901-1.581 2.043-0.475 3.074h-0.001c0.278 0.26 0.65 0.512 1.128 0.751 2.758 1.384 6.665 1.813 9.443 0.065 0.451-0.282 0.82-0.557 1.111-0.817l0 0c1.143-1.03 1.087-1.913 0.096-2.776-0.194 0.678-0.699 1.33-1.543 1.86C122.463 215.714 121.605 216.017 120.69 216.186z" fill="#ea9937" data-fill-palette-color="accent"></path><path d="M75.941 209.854c-1.19-0.597-1.9-1.489-2.05-2.424-1.487 1.128-1.729 2.631 0.652 3.827 2.757 1.384 6.665 1.812 9.443 0.063 2.222-1.396 2.45-2.51 1.207-3.593-0.194 0.677-0.698 1.327-1.542 1.857C81.59 210.885 78.19 210.983 75.941 209.854z" fill="#ea9937" data-fill-palette-color="accent"></path><path d="M183.552 205.294l-17.305 10.894-10.621 6.685 25.402 13.433c0.312 0.164 0.523 0.256 0.86 0.294l0.373-0.188 27.377-17.297-5.515-2.93-19.828-10.534C184.257 205.63 183.675 205.33 183.552 205.294z" fill="#ea9937" data-fill-palette-color="accent"></path><path d="M108.265 207.509c3.189-2.01-3.159-4.32-6.414-2.272C98.661 207.242 105.011 209.557 108.265 207.509z" fill="#ea9937" data-fill-palette-color="accent"></path><path d="M134.531 202.971l-0.192 0.006c0.231 0.125 0.444 0.265 0.635 0.412C134.814 203.253 134.667 203.113 134.531 202.971z" fill="#ea9937" data-fill-palette-color="accent"></path><path d="M147.779 213.194c3.188-2.008-3.16-4.319-6.414-2.274C138.176 212.929 144.524 215.242 147.779 213.194z" fill="#ea9937" data-fill-palette-color="accent"></path><path d="M71.328 215.28c3.189-2.007-3.16-4.319-6.414-2.271C61.725 215.016 68.073 217.328 71.328 215.28z" fill="#ea9937" data-fill-palette-color="accent"></path><path d="M112.877 202.082c-1.189-0.598-1.899-1.488-2.048-2.425-1.282 0.976-1.639 2.224-0.191 3.314h0.001c0.232 0.175 0.512 0.346 0.842 0.512 2.758 1.386 6.665 1.813 9.443 0.067 0.31-0.195 0.58-0.383 0.813-0.573h0.007c1.437-1.138 1.457-2.09 0.387-3.021-0.194 0.676-0.698 1.326-1.543 1.857C118.525 203.114 115.128 203.21 112.877 202.082z" fill="#ea9937" data-fill-palette-color="accent"></path><path d="M149.813 194.31c-1.19-0.598-1.899-1.488-2.048-2.423-1.487 1.128-1.729 2.63 0.65 3.825 2.758 1.385 6.666 1.812 9.443 0.065 2.223-1.397 2.452-2.51 1.207-3.594-0.193 0.677-0.697 1.327-1.542 1.858C155.462 195.339 152.064 195.438 149.813 194.31z" fill="#ea9937" data-fill-palette-color="accent"></path><path d="M138.36 201.387c-1.189-0.599-1.899-1.488-2.049-2.425-1.488 1.129-1.729 2.633 0.652 3.826 0.127 0.063 0.257 0.125 0.389 0.183v0.005c2.658 1.199 6.217 1.527 8.847-0.001h0.012c0.065-0.039 0.133-0.079 0.197-0.12 2.221-1.396 2.45-2.511 1.206-3.594-0.194 0.677-0.696 1.328-1.542 1.857C144.009 202.417 140.61 202.515 138.36 201.387z" fill="#ea9937" data-fill-palette-color="accent"></path><path d="M145.201 199.736c3.189-2.007-3.159-4.32-6.413-2.271C135.599 199.472 141.947 201.785 145.201 199.736z" fill="#ea9937" data-fill-palette-color="accent"></path><path d="M154.078 179.201c3.189-2.006-3.158-4.316-6.414-2.271C144.475 178.938 150.823 181.25 154.078 179.201z" fill="#ea9937" data-fill-palette-color="accent"></path><path d="M158.69 173.774c-1.19-0.596-1.899-1.487-2.049-2.422-1.488 1.127-1.729 2.629 0.651 3.825 2.758 1.385 6.666 1.814 9.443 0.066 2.221-1.398 2.45-2.513 1.207-3.595-0.195 0.677-0.699 1.329-1.542 1.858C164.341 174.807 160.939 174.904 158.69 173.774z" fill="#ea9937" data-fill-palette-color="accent"></path><path d="M168.746 168.1c2.758 1.385 6.666 1.815 9.444 0.067 2.222-1.396 2.452-2.512 1.206-3.592-0.193 0.674-0.698 1.326-1.541 1.856-2.062 1.298-5.463 1.396-7.711 0.267-1.189-0.598-1.9-1.488-2.049-2.424C166.607 165.405 166.367 166.907 168.746 168.1z" fill="#ea9937" data-fill-palette-color="accent"></path><path d="M165.531 172.125c3.19-2.006-3.158-4.318-6.412-2.271C155.928 171.86 162.276 174.173 165.531 172.125z" fill="#ea9937" data-fill-palette-color="accent"></path><path d="M176.984 165.048c3.189-2.006-3.158-4.319-6.413-2.271C167.382 164.785 173.73 167.096 176.984 165.048z" fill="#ea9937" data-fill-palette-color="accent"></path><path d="M119.718 200.432c3.19-2.007-3.159-4.319-6.414-2.271C110.114 200.166 116.464 202.479 119.718 200.432z" fill="#ea9937" data-fill-palette-color="accent"></path><path d="M148.556 23.004l-0.542 0.332c2.437 0.073 2.294 1.914 2.317 5.672v91.08c0 3.198-2.08 7.141-4.584 8.746l-96.596 61.998c-3.283 1.943-3.26 2.015-4.405 2.119 0.12 0.16 0.264 0.312 0.438 0.438l0.164 0.083 0.143 0.035c0.347 0.156 0.778 0.105 1.251-0.061 0.226-0.1 3.459-1.994 3.459-1.994l96.137-61.702c2.836-1.821 5.084-6.122 5.084-9.663v-91.08c0-2.549 0.022-4.009-0.242-4.885C150.417 22.062 148.556 23.004 148.556 23.004z" fill="#ea9937" data-fill-palette-color="accent"></path><path d="M131.172 193.355c3.189-2.008-3.16-4.32-6.414-2.271C121.568 193.089 127.917 195.402 131.172 193.355z" fill="#ea9937" data-fill-palette-color="accent"></path><path d="M156.654 192.66c3.189-2.009-3.158-4.32-6.414-2.271C147.05 192.394 153.399 194.707 156.654 192.66z" fill="#ea9937" data-fill-palette-color="accent"></path><path d="M135.784 187.928c-1.19-0.597-1.9-1.487-2.05-2.421-1.487 1.128-1.728 2.63 0.652 3.824 2.759 1.385 6.666 1.812 9.443 0.064 2.221-1.396 2.45-2.51 1.207-3.592-0.193 0.675-0.699 1.326-1.541 1.857C141.433 188.96 138.033 189.058 135.784 187.928z" fill="#ea9937" data-fill-palette-color="accent"></path><path d="M124.331 195.005c-1.19-0.596-1.9-1.486-2.049-2.424-1.488 1.129-1.729 2.631 0.651 3.828 2.758 1.383 6.666 1.812 9.443 0.063 2.222-1.396 2.452-2.511 1.207-3.593-0.194 0.677-0.697 1.328-1.542 1.856C129.979 196.037 126.58 196.134 124.331 195.005z" fill="#ea9937" data-fill-palette-color="accent"></path><path d="M142.625 186.277c3.189-2.006-3.16-4.318-6.414-2.271C133.021 186.014 139.37 188.326 142.625 186.277z" fill="#ea9937" data-fill-palette-color="accent"></path><path d="M147.237 180.852c-1.188-0.599-1.899-1.487-2.049-2.423-1.487 1.129-1.729 2.632 0.651 3.826 2.758 1.384 6.664 1.813 9.443 0.065 2.221-1.397 2.451-2.513 1.207-3.594-0.195 0.675-0.699 1.326-1.543 1.856C152.886 181.884 149.487 181.981 147.237 180.852z" fill="#ea9937" data-fill-palette-color="accent"></path><path d="M191.015 171.429c3.189-2.006-3.159-4.319-6.414-2.271C181.412 171.166 187.761 173.478 191.015 171.429z" fill="#ea9937" data-fill-palette-color="accent"></path><path d="M117.141 186.974c3.19-2.006-3.159-4.318-6.413-2.271C107.538 186.71 113.887 189.021 117.141 186.974z" fill="#ea9937" data-fill-palette-color="accent"></path><path d="M110.301 188.623c-1.189-0.597-1.9-1.485-2.049-2.42-1.488 1.127-1.729 2.629 0.651 3.824 2.758 1.383 6.666 1.814 9.443 0.064 2.223-1.396 2.451-2.51 1.207-3.592-0.194 0.676-0.698 1.326-1.543 1.857C115.948 189.655 112.551 189.753 110.301 188.623z" fill="#ea9937" data-fill-palette-color="accent"></path><path d="M121.753 181.548c-1.188-0.598-1.899-1.487-2.049-2.424-1.487 1.129-1.729 2.633 0.652 3.826 2.758 1.383 6.666 1.812 9.444 0.065 2.222-1.397 2.451-2.513 1.206-3.595-0.194 0.676-0.698 1.328-1.542 1.858C127.402 182.58 124.003 182.677 121.753 181.548z" fill="#ea9937" data-fill-palette-color="accent"></path><path d="M98.848 195.701c-1.19-0.598-1.9-1.488-2.05-2.424-1.486 1.128-1.729 2.631 0.652 3.826 2.758 1.385 6.665 1.814 9.443 0.064 2.222-1.396 2.451-2.51 1.206-3.592-0.193 0.676-0.697 1.327-1.542 1.857C104.495 196.732 101.097 196.83 98.848 195.701z" fill="#ea9937" data-fill-palette-color="accent"></path><path d="M94.234 201.128c3.189-2.008-3.159-4.319-6.413-2.272C84.632 200.862 90.98 203.175 94.234 201.128z" fill="#ea9937" data-fill-palette-color="accent"></path><path d="M128.594 179.897c3.19-2.006-3.159-4.319-6.413-2.271C118.992 179.632 125.341 181.944 128.594 179.897z" fill="#ea9937" data-fill-palette-color="accent"></path><path d="M161.268 187.234c-1.19-0.599-1.899-1.49-2.049-2.424-1.488 1.128-1.729 2.631 0.651 3.824 2.758 1.384 6.666 1.813 9.443 0.066 2.223-1.398 2.451-2.511 1.207-3.593-0.193 0.675-0.698 1.327-1.542 1.856C166.917 188.266 163.518 188.361 161.268 187.234z" fill="#ea9937" data-fill-palette-color="accent"></path><path d="M154.716 161.72c2.759 1.385 6.666 1.814 9.443 0.066 2.223-1.396 2.45-2.511 1.207-3.594-0.193 0.676-0.697 1.327-1.543 1.859-2.062 1.297-5.461 1.395-7.71 0.266-1.19-0.599-1.899-1.49-2.05-2.425C152.578 159.023 152.335 160.527 154.716 161.72z" fill="#ea9937" data-fill-palette-color="accent"></path><path d="M151.5 165.746c3.19-2.008-3.158-4.32-6.412-2.273C141.897 165.479 148.248 167.792 151.5 165.746z" fill="#ea9937" data-fill-palette-color="accent"></path><path d="M162.955 158.669c3.189-2.008-3.16-4.32-6.414-2.274C153.351 158.403 159.701 160.716 162.955 158.669z" fill="#ea9937" data-fill-palette-color="accent"></path><path d="M140.047 172.819c3.19-2.006-3.159-4.317-6.413-2.271C130.444 172.556 136.793 174.869 140.047 172.819z" fill="#ea9937" data-fill-palette-color="accent"></path><path d="M133.207 174.472c-1.189-0.598-1.9-1.49-2.05-2.424-1.487 1.128-1.728 2.63 0.652 3.826 2.758 1.385 6.666 1.814 9.444 0.064 2.221-1.396 2.452-2.511 1.208-3.593-0.195 0.676-0.699 1.325-1.543 1.858C138.855 175.501 135.456 175.602 133.207 174.472z" fill="#ea9937" data-fill-palette-color="accent"></path><path d="M144.66 167.395c-1.188-0.599-1.898-1.488-2.049-2.422-1.487 1.127-1.729 2.629 0.652 3.823 2.758 1.385 6.665 1.814 9.441 0.066 2.223-1.396 2.453-2.512 1.209-3.593-0.195 0.676-0.699 1.326-1.543 1.858C150.309 168.427 146.91 168.524 144.66 167.395z" fill="#ea9937" data-fill-palette-color="accent"></path><path d="M105.688 194.05c3.189-2.008-3.16-4.317-6.414-2.271C96.085 193.787 102.434 196.099 105.688 194.05z" fill="#ea9937" data-fill-palette-color="accent"></path><path d="M175.298 193.614c-1.189-0.598-1.9-1.489-2.051-2.424-1.485 1.128-1.728 2.631 0.653 3.826 2.757 1.385 6.665 1.813 9.442 0.065 2.222-1.398 2.451-2.511 1.207-3.594-0.195 0.676-0.697 1.327-1.543 1.856C180.947 194.646 177.548 194.744 175.298 193.614z" fill="#ea9937" data-fill-palette-color="accent"></path><path d="M170.684 199.041c3.19-2.008-3.159-4.319-6.413-2.271C161.082 198.775 167.431 201.089 170.684 199.041z" fill="#ea9937" data-fill-palette-color="accent"></path><path d="M182.776 174.482c2.759 1.385 6.666 1.814 9.444 0.066 2.222-1.397 2.451-2.512 1.205-3.594-0.192 0.676-0.696 1.326-1.541 1.857-2.062 1.298-5.461 1.396-7.711 0.266-1.19-0.598-1.899-1.488-2.049-2.421C180.637 171.785 180.396 173.289 182.776 174.482z" fill="#ea9937" data-fill-palette-color="accent"></path><path d="M172.722 180.156c-1.191-0.598-1.9-1.486-2.051-2.424-1.487 1.127-1.729 2.632 0.652 3.827 2.758 1.383 6.665 1.813 9.443 0.065 2.222-1.397 2.451-2.512 1.207-3.594-0.195 0.676-0.698 1.327-1.542 1.857C178.369 181.188 174.971 181.285 172.722 180.156z" fill="#ea9937" data-fill-palette-color="accent"></path><path d="M179.561 178.507c3.188-2.008-3.158-4.32-6.413-2.272C169.958 178.242 176.308 180.555 179.561 178.507z" fill="#ea9937" data-fill-palette-color="accent"></path><path d="M182.139 191.964c3.188-2.01-3.16-4.32-6.413-2.272C172.535 191.697 178.884 194.013 182.139 191.964z" fill="#ea9937" data-fill-palette-color="accent"></path><path d="M205.044 177.811c3.189-2.006-3.16-4.319-6.414-2.272C195.441 177.544 201.791 179.858 205.044 177.811z" fill="#ea9937" data-fill-palette-color="accent"></path><path d="M168.108 185.582c3.188-2.006-3.16-4.317-6.414-2.271C158.503 185.317 164.854 187.63 168.108 185.582z" fill="#ea9937" data-fill-palette-color="accent"></path><path d="M196.807 180.864c2.759 1.382 6.665 1.812 9.444 0.065 2.221-1.397 2.451-2.51 1.205-3.594-0.192 0.676-0.699 1.326-1.541 1.857-2.062 1.297-5.461 1.395-7.711 0.266-1.189-0.598-1.899-1.485-2.05-2.422C194.667 178.166 194.427 179.667 196.807 180.864z" fill="#ea9937" data-fill-palette-color="accent"></path><path d="M186.751 186.537c-1.19-0.598-1.901-1.488-2.051-2.423-1.488 1.128-1.728 2.632 0.652 3.825 2.758 1.385 6.666 1.812 9.443 0.066 2.223-1.397 2.451-2.512 1.207-3.592-0.193 0.676-0.698 1.326-1.543 1.856C192.4 187.569 189.001 187.666 186.751 186.537z" fill="#ea9937" data-fill-palette-color="accent"></path><path d="M193.591 184.887c3.189-2.007-3.159-4.318-6.413-2.271C183.987 184.623 190.337 186.936 193.591 184.887z" fill="#ea9937" data-fill-palette-color="accent"></path><path d="M97.28 216.191v0.006c-2.081 1.077-5.2 1.098-7.31 0.038-0.026-0.014-0.052-0.026-0.079-0.043h-0.004c-1.14-0.597-1.82-1.467-1.966-2.382-0.927 0.703-1.37 1.553-0.997 2.382h0.001c0.227 0.502 0.752 0.995 1.648 1.445 2.758 1.384 6.665 1.812 9.443 0.063 0.863-0.543 1.426-1.044 1.718-1.511v-0.004c0.459-0.742 0.249-1.417-0.511-2.078-0.195 0.677-0.698 1.328-1.542 1.856C97.553 216.048 97.419 216.125 97.28 216.191z" fill="#ea9937" data-fill-palette-color="accent"></path><path d="M257.335 193.858L155.41 142.705c-1.306-0.679-2.406-1.062-3.369-1.236l0.006-0.37 3.433-2.202c2.63-1.688 4.772-5.767 4.772-9.097V6.412c0-1.958-0.722-3.166-1.823-3.51-3.615-1.459-6.951-3.31-10.964-1.305l-1.899 1.071L33.676 74.405c-2.921 1.876-5.21 6.266-5.21 9.893l0.001 118.68v4.721c0.184 4.887 2.62 5.025 6.249 6.549l1.136 0.45c-0.086 0.438-0.18 0.941-0.274 1.494h-0.001c-0.199 1.147-0.402 2.498-0.545 3.884-0.226 2.188 1.297 3.981 1.083 6.204l-0.116 1.074c-0.077 0.964 0.144 1.815 1.065 2.258l39.134 19.63 62.806 31.506c3.064 1.537 7.707 1.4 10.507-0.36l49.496-31.154 52.512-33.049h0.001l4.967-3.126c1.798-1.131 1.964-5.546 2.136-7.419 0.516-0.535 0.453-1.615 0.453-1.615l0.062-1.062 0.355-6.047c0.03-0.16 0.041-0.322 0.029-0.483C259.462 195.487 258.735 194.561 257.335 193.858zM212.943 219.603l-29.516 18.65c-1.098 0.58-1.592 0.947-3.422-0.024l-26.84-14.19c-1.109-0.6-1.184-1.384-0.521-1.863l29.932-18.838c1.129-0.623 2.338 0.176 2.739 0.389 0 0 27.837 14.806 27.897 14.854C213.537 218.82 213.578 219.212 212.943 219.603zM197.214 174.555c0.162-0.14 0.346-0.273 0.546-0.4 2.063-1.297 5.462-1.396 7.711-0.266 0.618 0.31 1.104 0.698 1.452 1.13 3.188 1.641 4.488 4.594 0.197 7.295-3.754 2.361-9.36 1.467-12.113-0.695 0.175 0.151 0.33 0.312 0.464 0.479 3.187 1.639 4.487 4.594 0.196 7.294-3.756 2.362-9.362 1.467-12.113-0.695 0.175 0.151 0.328 0.312 0.464 0.478 3.187 1.64 4.487 4.596 0.198 7.295-3.758 2.363-9.364 1.468-12.114-0.694 0.175 0.149 0.328 0.312 0.462 0.478 2.961 1.523 4.296 4.187 1.021 6.719v0.004c-0.248 0.191-0.521 0.381-0.823 0.57-3.681 2.317-9.144 1.502-11.947-0.573l-0.01-0.002c-0.056-0.038-0.106-0.077-0.158-0.118 0.044 0.037 0.088 0.077 0.128 0.12l0.008 0.001c0.118 0.115 0.229 0.234 0.327 0.355 3.187 1.641 4.49 4.596 0.199 7.293-3.756 2.365-9.362 1.471-12.114-0.693 0.176 0.15 0.329 0.312 0.463 0.479 2.602 1.34 3.947 3.553 2.019 5.786v0.005c-0.433 0.502-1.032 1.008-1.819 1.502-3.757 2.364-9.363 1.469-12.113-0.693 0.174 0.15 0.328 0.311 0.461 0.478 3.188 1.64 4.49 4.595 0.198 7.294-3.755 2.363-9.362 1.467-12.112-0.695 0.174 0.15 0.328 0.312 0.462 0.478 3.187 1.642 4.488 4.595 0.197 7.295-3.755 2.364-9.362 1.468-12.113-0.696 0.175 0.152 0.329 0.312 0.462 0.479 3.187 1.642 4.489 4.596 0.198 7.294-6.706 4.221-19.318-1.952-11.022-7.171 0.356-0.224 0.729-0.419 1.114-0.587 0.164-0.139 0.346-0.272 0.548-0.398 2.062-1.298 5.461-1.396 7.711-0.268 0.297 0.146 0.563 0.315 0.798 0.496-1.99-1.691-2.259-4.092 1.282-6.321 0.356-0.224 0.729-0.417 1.114-0.585 0.164-0.139 0.347-0.273 0.548-0.399 2.062-1.297 5.461-1.396 7.711-0.268 0.297 0.147 0.562 0.315 0.798 0.498-1.99-1.693-2.258-4.095 1.281-6.321 0.357-0.225 0.731-0.42 1.116-0.587 0.163-0.14 0.346-0.272 0.547-0.399 0.258-0.162 0.537-0.307 0.83-0.425v-0.005c1.947-0.824 4.593-0.827 6.539 0.005 0.116 0.05 0.23 0.103 0.342 0.158 0.297 0.149 0.563 0.315 0.799 0.498-0.245-0.208-0.464-0.427-0.652-0.656H136.9c-1.346-1.626-1.169-3.712 1.935-5.666 0.356-0.223 0.729-0.418 1.115-0.586 0.163-0.139 0.346-0.272 0.547-0.399 2.062-1.297 5.461-1.396 7.711-0.266 0.297 0.146 0.562 0.312 0.799 0.496-1.99-1.693-2.26-4.094 1.281-6.32 0.279-0.176 0.57-0.334 0.869-0.478h0.004c0.078-0.037 0.159-0.073 0.241-0.108 0.164-0.141 0.347-0.272 0.548-0.4 2.062-1.299 5.461-1.396 7.711-0.266 0.297 0.147 0.563 0.313 0.799 0.496-1.991-1.693-2.26-4.094 1.281-6.32 0.355-0.225 0.729-0.42 1.114-0.588 0.164-0.14 0.347-0.271 0.548-0.398 2.062-1.299 5.461-1.396 7.709-0.268 0.299 0.149 0.565 0.316 0.801 0.498-1.99-1.692-2.26-4.094 1.281-6.322 0.354-0.225 0.73-0.42 1.115-0.586 0.163-0.139 0.345-0.272 0.548-0.398 2.062-1.298 5.46-1.396 7.709-0.268 0.298 0.148 0.562 0.314 0.8 0.498-1.99-1.692-2.26-4.094 1.28-6.321 0.356-0.226 0.729-0.421 1.116-0.587 0.163-0.141 0.345-0.273 0.547-0.399 2.062-1.299 5.461-1.396 7.71-0.267 0.297 0.15 0.563 0.316 0.799 0.498-1.991-1.692-2.259-4.096 1.281-6.32C196.455 174.917 196.828 174.723 197.214 174.555zM183.183 168.173c0.163-0.139 0.347-0.272 0.548-0.399 2.062-1.298 5.461-1.396 7.711-0.267 0.616 0.312 1.104 0.697 1.451 1.13 3.187 1.642 4.487 4.595 0.198 7.297-3.756 2.36-9.362 1.466-12.113-0.695 0.174 0.151 0.328 0.312 0.463 0.478 3.188 1.638 4.488 4.595 0.198 7.295-3.757 2.361-9.364 1.466-12.114-0.696 0.173 0.151 0.328 0.312 0.462 0.478 3.187 1.641 4.49 4.595 0.197 7.293-3.755 2.365-9.361 1.47-12.112-0.692 0.174 0.149 0.328 0.312 0.463 0.478 3.186 1.64 4.487 4.594 0.197 7.295-3.755 2.36-9.361 1.467-12.113-0.695 0.174 0.15 0.327 0.311 0.461 0.479 2.688 1.383 4.037 3.701 1.814 6.021h-0.003c-0.412 0.427-0.945 0.854-1.612 1.272-3.756 2.362-9.363 1.469-12.114-0.693 0.175 0.15 0.329 0.311 0.463 0.477 3.187 1.641 4.488 4.596 0.197 7.295-3.755 2.363-9.362 1.467-12.112-0.695 0.174 0.151 0.327 0.312 0.462 0.479 2.33 1.198 3.653 3.101 2.517 5.091v0.001c-0.418 0.732-1.167 1.478-2.319 2.2-3.756 2.365-9.362 1.469-12.113-0.693 0.174 0.15 0.328 0.312 0.462 0.478 3.187 1.64 4.489 4.595 0.198 7.293-3.756 2.366-9.362 1.47-12.113-0.694 0.174 0.151 0.329 0.312 0.462 0.479 3.187 1.641 4.489 4.595 0.198 7.294-6.706 4.221-19.318-1.951-11.023-7.173 0.356-0.224 0.73-0.416 1.116-0.584 0.163-0.14 0.346-0.274 0.547-0.399 2.062-1.298 5.461-1.396 7.711-0.269 0.296 0.148 0.563 0.314 0.799 0.498-1.991-1.693-2.26-4.095 1.281-6.321 0.356-0.224 0.729-0.419 1.115-0.586 0.162-0.14 0.346-0.273 0.547-0.4 2.062-1.298 5.461-1.396 7.711-0.266 0.297 0.147 0.563 0.313 0.798 0.495-0.484-0.411-0.867-0.866-1.118-1.35v-0.002c-0.776-1.501-0.277-3.283 2.4-4.969 0.356-0.225 0.729-0.419 1.116-0.587 0.162-0.14 0.345-0.272 0.546-0.399 2.062-1.298 5.461-1.396 7.71-0.266 0.298 0.146 0.564 0.314 0.799 0.496-1.99-1.691-2.258-4.092 1.282-6.322 0.356-0.223 0.729-0.418 1.115-0.586 0.163-0.137 0.346-0.271 0.547-0.398 0.101-0.062 0.205-0.125 0.312-0.184h0.004c2.081-1.121 5.257-1.156 7.396-0.083 0.057 0.028 0.11 0.058 0.164 0.08h0.192c-1.567-1.658-1.534-3.854 1.724-5.903 0.356-0.225 0.729-0.42 1.115-0.587 0.163-0.14 0.345-0.272 0.547-0.399 2.062-1.299 5.46-1.396 7.71-0.268 0.298 0.15 0.562 0.316 0.8 0.498-1.991-1.691-2.259-4.094 1.28-6.322 0.356-0.225 0.729-0.418 1.115-0.586 0.164-0.139 0.346-0.271 0.547-0.398 2.062-1.297 5.463-1.396 7.711-0.268 0.299 0.148 0.562 0.315 0.801 0.498-1.992-1.693-2.26-4.095 1.279-6.322 0.356-0.224 0.729-0.42 1.117-0.586 0.161-0.14 0.344-0.271 0.547-0.399 2.062-1.298 5.461-1.396 7.711-0.267 0.295 0.149 0.562 0.315 0.797 0.496-1.989-1.689-2.258-4.093 1.283-6.318 0.354-0.227 0.729-0.422 1.114-0.588 0.162-0.141 0.347-0.273 0.547-0.4 2.062-1.297 5.462-1.395 7.712-0.265 0.295 0.147 0.562 0.315 0.799 0.497-1.992-1.692-2.26-4.094 1.279-6.321C182.425 168.535 182.798 168.339 183.183 168.173zM169.153 161.792c0.162-0.14 0.347-0.272 0.546-0.398 2.064-1.298 5.463-1.396 7.713-0.268 0.616 0.311 1.104 0.697 1.451 1.131 3.186 1.642 4.488 4.594 0.197 7.295-3.755 2.361-9.363 1.466-12.111-0.695 0.172 0.15 0.326 0.311 0.459 0.477 3.188 1.641 4.49 4.595 0.199 7.297-3.755 2.361-9.363 1.466-12.113-0.696 0.174 0.151 0.328 0.312 0.463 0.478 3.187 1.642 4.487 4.594 0.197 7.295-3.755 2.362-9.363 1.467-12.113-0.694 0.174 0.151 0.33 0.311 0.463 0.476 3.187 1.643 4.488 4.596 0.197 7.295-3.756 2.363-9.363 1.469-12.113-0.693 0.174 0.152 0.328 0.312 0.462 0.478 3.186 1.64 4.489 4.595 0.198 7.295-3.756 2.362-9.363 1.468-12.113-0.694 0.174 0.149 0.328 0.31 0.462 0.477 2.419 1.247 3.752 3.249 2.375 5.327h-0.002c-0.438 0.655-1.146 1.319-2.176 1.967-3.755 2.362-9.362 1.468-12.113-0.694 0.175 0.15 0.329 0.312 0.462 0.478 3.187 1.64 4.489 4.595 0.198 7.295-3.756 2.362-9.363 1.469-12.113-0.695 0.175 0.151 0.328 0.312 0.462 0.479 2.057 1.058 3.328 2.662 2.817 4.396-0.28 0.952-1.099 1.941-2.619 2.897-3.756 2.363-9.363 1.468-12.113-0.694 0.175 0.151 0.329 0.312 0.462 0.478 3.187 1.641 4.489 4.596 0.198 7.293-6.706 4.222-19.318-1.951-11.022-7.172 0.355-0.223 0.729-0.418 1.115-0.586 0.163-0.139 0.345-0.271 0.547-0.399 2.062-1.298 5.461-1.396 7.71-0.267 0.298 0.149 0.564 0.315 0.8 0.498-0.712-0.604-1.203-1.301-1.38-2.045v-0.002c-0.316-1.34 0.386-2.844 2.661-4.273 0.355-0.225 0.729-0.42 1.115-0.588 0.163-0.139 0.345-0.272 0.547-0.398 2.062-1.299 5.462-1.396 7.711-0.268 0.296 0.147 0.563 0.315 0.799 0.496-1.991-1.691-2.26-4.094 1.281-6.32 0.356-0.225 0.729-0.417 1.115-0.588 0.163-0.137 0.345-0.271 0.547-0.397 0.657-0.413 1.451-0.705 2.299-0.877h0.013c1.157-0.229 2.416-0.229 3.574-0.003v0.005c0.652 0.128 1.273 0.331 1.825 0.608 0.296 0.148 0.563 0.316 0.799 0.498-0.404-0.346-0.737-0.719-0.982-1.111-0.96-1.55-0.557-3.436 2.263-5.211 0.357-0.225 0.73-0.419 1.116-0.586 0.163-0.141 0.346-0.271 0.547-0.4 2.062-1.298 5.462-1.395 7.711-0.266 0.297 0.15 0.562 0.316 0.8 0.497-1.992-1.691-2.26-4.093 1.279-6.321 0.357-0.225 0.73-0.419 1.116-0.586 0.163-0.141 0.346-0.271 0.547-0.4 2.062-1.297 5.461-1.396 7.712-0.266 0.296 0.148 0.562 0.314 0.799 0.497-1.992-1.692-2.26-4.097 1.28-6.321 0.357-0.225 0.729-0.42 1.115-0.587 0.164-0.14 0.346-0.271 0.547-0.399 2.062-1.297 5.462-1.396 7.711-0.267 0.298 0.149 0.562 0.316 0.8 0.498-1.992-1.692-2.26-4.095 1.28-6.321 0.355-0.225 0.729-0.42 1.115-0.588 0.164-0.139 0.346-0.271 0.547-0.397 2.062-1.298 5.461-1.396 7.711-0.269 0.298 0.149 0.563 0.316 0.8 0.498-1.991-1.691-2.259-4.093 1.28-6.32 0.356-0.227 0.729-0.42 1.115-0.588 0.162-0.139 0.346-0.271 0.547-0.398 2.063-1.297 5.461-1.396 7.711-0.268 0.297 0.148 0.562 0.316 0.799 0.498-1.991-1.691-2.258-4.095 1.281-6.32C168.395 162.155 168.767 161.96 169.153 161.792zM154.007 155.998c0.356-0.225 0.73-0.418 1.115-0.586 0.164-0.139 0.347-0.273 0.547-0.399 2.062-1.296 5.461-1.394 7.711-0.267 0.617 0.311 1.104 0.698 1.451 1.131 3.188 1.64 4.489 4.594 0.198 7.293-3.756 2.365-9.362 1.469-12.112-0.693 0.174 0.15 0.328 0.311 0.461 0.477 3.187 1.642 4.49 4.596 0.199 7.295-3.757 2.363-9.363 1.467-12.115-0.694 0.176 0.151 0.33 0.312 0.463 0.479 3.186 1.639 4.49 4.592 0.198 7.293-3.755 2.361-9.362 1.467-12.114-0.693 0.175 0.15 0.33 0.31 0.463 0.476 3.187 1.642 4.489 4.595 0.198 7.295-3.755 2.362-9.362 1.468-12.114-0.694 0.175 0.15 0.329 0.311 0.463 0.477 3.187 1.641 4.488 4.596 0.198 7.295-3.755 2.362-9.362 1.467-12.113-0.693 0.174 0.15 0.328 0.311 0.462 0.478 3.186 1.638 4.488 4.594 0.198 7.294-3.755 2.361-9.362 1.466-12.114-0.695 0.174 0.15 0.328 0.311 0.463 0.477 2.146 1.105 3.438 2.81 2.739 4.632h-0.002c-0.339 0.879-1.144 1.784-2.539 2.663-3.756 2.363-9.363 1.468-12.114-0.693 0.174 0.148 0.329 0.311 0.463 0.479 3.186 1.638 4.487 4.594 0.197 7.293-3.755 2.361-9.362 1.468-12.113-0.694 0.174 0.149 0.329 0.31 0.463 0.478 1.778 0.916 2.971 2.242 2.93 3.705-0.034 1.155-0.838 2.397-2.732 3.588-5.176 3.258-13.872 0.324-13.754-3.586 0.035-1.154 0.84-2.396 2.73-3.584 0.357-0.224 0.73-0.42 1.115-0.586 0.164-0.14 0.347-0.272 0.547-0.4 2.062-1.299 5.462-1.396 7.712-0.268 0.297 0.148 0.562 0.316 0.799 0.497-1.991-1.69-2.259-4.093 1.28-6.321 0.357-0.225 0.73-0.418 1.116-0.586 0.163-0.14 0.346-0.271 0.547-0.399 2.062-1.298 5.461-1.396 7.712-0.267 0.296 0.148 0.562 0.314 0.798 0.498-0.636-0.541-1.096-1.154-1.312-1.807v-0.005c-0.462-1.397 0.184-2.996 2.594-4.511 0.355-0.226 0.729-0.42 1.115-0.588 0.162-0.14 0.346-0.271 0.547-0.398 2.062-1.298 5.461-1.396 7.711-0.266 0.297 0.147 0.563 0.314 0.799 0.496-1.991-1.691-2.259-4.093 1.281-6.32 0.356-0.225 0.729-0.42 1.115-0.588 0.163-0.139 0.346-0.271 0.547-0.398 2.062-1.298 5.461-1.396 7.711-0.268 0.297 0.15 0.564 0.316 0.8 0.498-1.992-1.692-2.26-4.094 1.28-6.32 0.356-0.227 0.729-0.421 1.116-0.587 0.162-0.14 0.345-0.271 0.547-0.399 2.062-1.3 5.46-1.396 7.711-0.267 0.296 0.147 0.562 0.315 0.799 0.497-1.993-1.693-2.259-4.096 1.28-6.32 0.356-0.225 0.729-0.42 1.116-0.587 0.162-0.14 0.345-0.272 0.547-0.399 2.062-1.297 5.46-1.397 7.711-0.27 0.296 0.15 0.562 0.316 0.799 0.499-1.992-1.69-2.259-4.093 1.281-6.321 0.356-0.225 0.729-0.418 1.115-0.586 0.162-0.139 0.345-0.273 0.547-0.4 2.062-1.295 5.461-1.395 7.711-0.267 0.297 0.147 0.562 0.315 0.799 0.498-1.992-1.692-2.259-4.095 1.281-6.321 0.355-0.225 0.729-0.42 1.115-0.586 0.162-0.141 0.346-0.272 0.547-0.398 2.062-1.299 5.461-1.396 7.711-0.27 0.296 0.15 0.562 0.318 0.798 0.5C150.734 160.626 150.468 158.227 154.007 155.998zM153.178 120.884c0 3.714-2.331 8.193-5.337 10.122l-99.07 63.585c-3.533 2.268-6.513 0.146-6.513-3.916V95.776c0-3.713 2.331-8.193 5.336-10.121l99.069-63.586c3.534-2.269 6.515-0.146 6.515 3.916V120.884L153.178 120.884zM258.854 197.28c0 0-0.042 0.117-0.173 0.33-1.167 1.892-5.068 4.138-6.854 5.222l-102.16 64.252c-2.455 1.545-6.689 1.688-9.437 0.309L104.06 249.24l-65.762-33.005c-0.026-0.012-0.053-0.026-0.078-0.039-0.222-0.114-0.435-0.237-0.634-0.37-0.887-0.775-0.833-1.221-0.911-1.994-0.023-0.234-0.331-0.486-0.844-1-0.405-0.608-0.641-1.479-0.641-2.595V86.85c0-3.33 2.146-7.408 4.775-9.097L154.312 4.358l0.723-0.457 1.611-1.009c1.086-0.682 2.107 0.946 1.021 1.628l-1.888 1.187-0.444 0.278L41.005 79.371c-2.038 1.31-3.89 4.755-3.89 7.479v123.386c0 2.001 0.578 1.977 1.674 1.273L145.065 143.3l3.856-2.376c1.088-0.677 2.104 0.956 1.016 1.632l-4.547 2.824L39.828 213.126c-0.232 0.148-0.462 0.272-0.687 0.375l-0.37 0.15-0.58 0.233c0.273 0.243 0.553 0.422 0.97 0.631l3.345 1.679 65.841 33.044 32.746 16.433c2.187 1.098 5.702 0.947 7.551-0.217l25.775-16.22h0.002l52.524-33.053 0 0 26.931-16.946 0.902-0.595c0.697-0.464 1.789-1.271 2.266-2.04C257.559 195.367 259.337 196.094 258.854 197.28z" fill="#ea9937" data-fill-palette-color="accent"></path></g></svg></g></g></svg></g><defs><mask id="63ee50da-c676-458f-ba85-573bf6a45892"><rect width="640" height="400" fill="white"></rect><rect width="348.05760000000004" height="65.60339561016455" fill="black" x="145.97119999999998" y="167.19830219491772" id="transform-me" transform="matrix(1,0,0,1,-122.24000000000001,-76.4)"></rect></mask><mask id="1c878c23-e2f0-4508-8a07-8553a409250f"><rect width="640" height="400" fill="white"></rect><rect width="348.05760000000004" height="65.60339561016455" fill="black" x="145.97119999999998" y="167.19830219491772" id="transform-me" transform="matrix(1,0,0,1,-122.24000000000001,-76.4)"></rect></mask><mask id="db7ff436-7e32-44ec-9c6c-f699955e125a"><rect width="640" height="400" fill="white"></rect><rect width="348.05760000000004" height="65.60339561016455" fill="black" x="145.97119999999998" y="167.19830219491772" id="transform-me" transform="matrix(1,0,0,1,-122.24000000000001,-76.4)"></rect></mask><mask id="3a9142a9-ae1f-42bb-b3e7-23799534c22e"><rect width="640" height="400" fill="white"></rect><rect width="348.05760000000004" height="65.60339561016455" fill="black" x="145.97119999999998" y="167.19830219491772" id="transform-me" transform="matrix(1,0,0,1,-122.24000000000001,-76.4)"></rect></mask><mask id="cb8a77d5-1860-4e17-9e6b-df2a02e25c53"><rect width="640" height="400" fill="white"></rect><rect width="348.05760000000004" height="65.60339561016455" fill="black" x="145.97119999999998" y="167.19830219491772" id="transform-me" transform="matrix(1,0,0,1,-122.24000000000001,-76.4)"></rect></mask><mask id="02bd90a7-366b-4230-8f34-c25244931084"><rect width="640" height="400" fill="white"></rect><rect width="348.05760000000004" height="65.60339561016455" fill="black" x="145.97119999999998" y="167.19830219491772" id="transform-me" transform="matrix(1,0,0,1,-122.24000000000001,-76.4)"></rect></mask><mask id="87908afb-2dd8-47db-9a9d-096c4d468cb1"><rect width="640" height="400" fill="white"></rect><rect width="348.05760000000004" height="65.60339561016455" fill="black" x="145.97119999999998" y="167.19830219491772" id="transform-me" transform="matrix(1,0,0,1,-122.24000000000001,-76.4)"></rect></mask><mask id="f581cd4b-2b63-4fad-b792-0ed7abc408ff"><rect width="640" height="400" fill="white"></rect><rect width="348.05760000000004" height="65.60339561016455" fill="black" x="145.97119999999998" y="167.19830219491772" id="transform-me" transform="matrix(1,0,0,1,-122.24000000000001,-76.4)"></rect></mask></defs></svg><rect width="395.52" height="247.2" fill="none" stroke="none" visibility="hidden"></rect></g></svg></g></svg>